<svg version="1.1" xmlns="http://www.w3.org/2000/svg" xmlns:xlink="http://www.w3.org/1999/xlink" x="0px" y="0px" width="300" height="177" viewBox="0 0 134.323 78.652" enable-background="new 0 0 134.323 78.652" xml:space="preserve" class="uk-svg">
<g>
	<path fill="#2C2F69" d="M21.666,21.857c0,3.426-2.702,6.281-6.166,6.281c-3.388,0-6.129-2.779-6.129-6.128
		c0-3.464,2.741-6.243,6.205-6.243C18.888,15.767,21.666,18.507,21.666,21.857 M26.208,32.097l2.614-4.339h-2.626V4.919h-7.308
		l2.664,4.339v5.481c-1.599-2.093-4.111-3.311-6.7-3.311c-5.747,0-10.315,4.834-10.315,10.506c0,5.633,4.682,10.468,10.354,10.468
		c2.702,0,5.139-1.066,6.661-3.35v3.045C21.552,32.097,26.208,32.097,26.208,32.097z"></path>
	<path fill="#2C2F69" d="M47.357,21.819c0,3.464-2.703,6.281-6.205,6.281c-3.273,0-6.052-2.741-6.052-6.053
		c0-3.426,2.664-6.281,6.128-6.281C44.578,15.766,47.357,18.469,47.357,21.819 M52.001,27.757V16.109l2.55-4.34h-7.27v2.893
		c-1.408-2.207-3.693-3.425-6.319-3.425c-5.938,0-10.659,4.91-10.659,10.81c0,5.748,4.606,10.583,10.43,10.583
		c2.665,0,5.063-1.028,6.548-3.274v2.74h4.734l2.536-4.339C54.551,27.757,52.001,27.757,52.001,27.757z"></path>
	<path fill="#2C2F69" d="M83.387,27.757l-2.627,4.339h7.287l-0.017-4.339v-5.9c0-1.371,0-3.122,0.876-4.263
		c0.837-1.142,2.285-1.714,3.693-1.714c1.37,0,2.741,0.534,3.578,1.637c0.799,1.104,0.799,2.398,0.799,3.655v6.585l-0.028,4.339
		h4.683l2.615-4.339h-2.626v-7.956c0-2.322-0.038-4.111-1.713-5.976c-1.484-1.599-3.654-2.513-5.861-2.513
		c-2.513,0-4.797,1.105-6.016,3.35v-2.893h-7.27l2.627,4.34L83.387,27.757L83.387,27.757z"></path>
	<path fill="#2C2F69" d="M122.591,21.819c0,3.464-2.702,6.281-6.205,6.281c-3.273,0-6.052-2.741-6.052-6.053
		c0-3.426,2.664-6.281,6.129-6.281C119.813,15.766,122.591,18.469,122.591,21.819 M127.235,27.757V16.109l2.55-4.34h-7.27v2.893
		c-1.408-2.207-3.692-3.425-6.319-3.425c-5.938,0-10.658,4.91-10.658,10.81c0,5.748,4.606,10.583,10.43,10.583
		c2.665,0,5.063-1.028,6.547-3.274v2.74h4.744l2.526-4.339C129.785,27.757,127.235,27.757,127.235,27.757z"></path>
	<path fill="#2C2F69" d="M112.21,9.537c1.262,0,2.286-1.024,2.286-2.287s-1.024-2.286-2.286-2.286c-1.263,0-2.287,1.023-2.287,2.286
		S110.947,9.537,112.21,9.537"></path>
	<path fill="#2C2F69" d="M119.445,9.537c1.263,0,2.287-1.024,2.287-2.287s-1.024-2.286-2.287-2.286
		c-1.262,0-2.286,1.023-2.286,2.286S118.183,9.537,119.445,9.537"></path>
	<path fill="#2C2F69" d="M73.199,21.819c0,3.427-2.664,6.282-6.166,6.282c-3.464,0-6.205-2.779-6.205-6.244
		c0-3.387,2.779-6.166,6.167-6.166C70.383,15.691,73.199,18.432,73.199,21.819 M80.051,11.77h-6.889v2.97
		c-1.523-2.361-4.035-3.312-6.776-3.312c-5.634,0-10.316,4.872-10.316,10.468c0,5.671,4.492,10.506,10.278,10.506
		c2.74,0,5.062-1.028,6.509-3.388v0.761c0,1.903-0.115,3.198-1.409,4.72c-1.027,1.18-2.702,1.866-4.301,1.866
		c-1.789,0-3.768-0.8-4.568-2.513h-5.367c1.066,4.416,5.482,6.509,9.707,6.509c3.007,0,5.786-0.951,7.956-3.083
		c2.321-2.322,2.549-4.758,2.549-7.879V16.109L80.051,11.77z"></path>
	<path fill="#2C2F69" d="M127.647,73.733c0.252,0,0.42-0.189,0.42-0.441c0-0.258-0.168-0.44-0.413-0.44
		c-0.244,0-0.419,0.189-0.419,0.44c0,0.252,0.168,0.441,0.405,0.441H127.647z M125.742,73.656l1.687-4.717h-0.651l-0.798,2.33
		c-0.217,0.617-0.405,1.212-0.538,1.758h-0.014c-0.133-0.546-0.308-1.127-0.504-1.764l-0.735-2.324h-0.665l1.547,4.717
		C125.071,73.656,125.742,73.656,125.742,73.656z M122.901,73.733c0.251,0,0.419-0.189,0.419-0.441c0-0.258-0.168-0.44-0.412-0.44
		c-0.245,0-0.42,0.189-0.42,0.44c0,0.252,0.168,0.441,0.406,0.441H122.901z M119.638,71.628c0.049-0.428,0.315-1.003,0.945-1.003
		c0.687,0,0.855,0.617,0.848,1.003H119.638z M122.004,72.077c0.014-0.07,0.021-0.169,0.021-0.295c0-0.624-0.287-1.597-1.393-1.597
		c-0.987,0-1.595,0.805-1.595,1.836c0,1.013,0.629,1.705,1.666,1.705c0.539,0,0.917-0.119,1.133-0.217l-0.112-0.433
		c-0.223,0.091-0.496,0.168-0.937,0.168c-0.617,0-1.142-0.343-1.156-1.174L122.004,72.077z M114.053,73.656h0.615v-2.044
		c0-0.098,0.014-0.21,0.042-0.287c0.112-0.343,0.427-0.63,0.827-0.63c0.581,0,0.784,0.462,0.784,1.008v1.953h0.615v-2.023
		c0-1.162-0.727-1.441-1.196-1.441c-0.561,0-0.953,0.314-1.121,0.629h-0.014l-0.035-0.552h-0.545c0.021,0.28,0.028,0.56,0.028,0.917
		C114.053,71.186,114.053,73.656,114.053,73.656z M112.786,69.645c0.244,0,0.398-0.182,0.398-0.399c0-0.216-0.154-0.391-0.391-0.391
		c-0.238,0-0.399,0.175-0.399,0.391c0,0.217,0.154,0.399,0.385,0.399H112.786z M113.1,70.269h-0.615v3.387h0.615V70.269z
		 M109.174,73.656h2.75v-0.489h-1.98v-0.014c0.154-0.168,0.294-0.343,0.434-0.525l1.518-1.975v-0.384h-2.582v0.489h1.84v0.014
		c-0.161,0.182-0.293,0.343-0.447,0.532l-1.533,1.996C109.174,73.3,109.174,73.656,109.174,73.656z M108.292,69.645
		c0.244,0,0.398-0.182,0.398-0.399c0-0.216-0.154-0.391-0.391-0.391c-0.238,0-0.399,0.175-0.399,0.391
		c0,0.217,0.154,0.399,0.385,0.399H108.292z M108.606,70.269h-0.615v3.387h0.615V70.269z M106.423,72.235
		c0,0.098-0.007,0.182-0.028,0.266c-0.112,0.456-0.49,0.736-0.903,0.736c-0.659,0-1.002-0.567-1.002-1.261
		c0-0.742,0.378-1.302,1.016-1.302c0.462,0,0.798,0.322,0.889,0.707c0.021,0.084,0.028,0.182,0.028,0.266V72.235z M106.423,68.687
		v2.015h-0.014c-0.147-0.266-0.497-0.51-1.022-0.51c-0.82,0-1.526,0.685-1.519,1.819c0,1.03,0.636,1.722,1.456,1.722
		c0.553,0,0.959-0.286,1.148-0.664h0.014l0.028,0.587h0.552c-0.021-0.231-0.028-0.574-0.028-0.875v-4.094
		C107.038,68.687,106.423,68.687,106.423,68.687z M101.032,71.628c0.049-0.428,0.316-1.003,0.946-1.003
		c0.686,0,0.854,0.617,0.847,1.003H101.032z M103.398,72.077c0.014-0.07,0.021-0.169,0.021-0.295c0-0.624-0.286-1.597-1.392-1.597
		c-0.988,0-1.596,0.805-1.596,1.836c0,1.013,0.629,1.705,1.666,1.705c0.539,0,0.917-0.119,1.134-0.217l-0.112-0.433
		c-0.224,0.091-0.497,0.168-0.938,0.168c-0.616,0-1.142-0.343-1.156-1.174L103.398,72.077z M99.186,73.656h0.601l-0.294-4.717
		h-0.776l-0.84,2.281c-0.21,0.595-0.378,1.113-0.504,1.589h-0.014c-0.126-0.49-0.28-1.008-0.476-1.589l-0.805-2.281h-0.777
		l-0.329,4.717h0.581l0.126-2.023c0.042-0.714,0.077-1.498,0.091-2.086h0.014c0.133,0.56,0.315,1.162,0.539,1.834l0.77,2.247h0.462
		l0.833-2.289c0.238-0.651,0.427-1.246,0.595-1.792h0.014c0,0.581,0.042,1.379,0.077,2.037L99.186,73.656z M92.697,71.99h1.728
		v-0.447h-1.728V71.99z M90.891,73.656l1.686-4.717h-0.65l-0.798,2.33c-0.217,0.617-0.406,1.212-0.539,1.758h-0.014
		c-0.133-0.546-0.308-1.127-0.504-1.764l-0.735-2.324h-0.665l1.547,4.717C90.219,73.656,90.891,73.656,90.891,73.656z
		 M87.573,73.656h0.615v-4.717h-0.615V73.656z M83.079,68.939v4.717h0.616v-2.212h2.282v2.212h0.616v-4.717h-0.616v1.974h-2.282
		v-1.974H83.079z M80.084,72.235c0,0.098-0.007,0.182-0.028,0.266c-0.113,0.456-0.491,0.736-0.904,0.736
		c-0.658,0-1.001-0.567-1.001-1.261c0-0.742,0.378-1.302,1.015-1.302c0.462,0,0.798,0.322,0.89,0.707
		c0.021,0.084,0.028,0.182,0.028,0.266V72.235z M80.084,68.687v2.015H80.07c-0.148-0.266-0.498-0.51-1.023-0.51
		c-0.819,0-1.525,0.685-1.518,1.819c0,1.03,0.636,1.722,1.455,1.722c0.553,0,0.959-0.286,1.148-0.664h0.014l0.028,0.587h0.553
		c-0.021-0.231-0.028-0.574-0.028-0.875v-4.094C80.699,68.687,80.084,68.687,80.084,68.687z M73.959,73.656h0.615v-2.044
		c0-0.098,0.014-0.21,0.042-0.287c0.112-0.343,0.427-0.63,0.826-0.63c0.581,0,0.785,0.462,0.785,1.008v1.953h0.615v-2.023
		c0-1.162-0.727-1.441-1.197-1.441c-0.56,0-0.952,0.314-1.12,0.629h-0.014l-0.035-0.552h-0.545c0.021,0.28,0.028,0.56,0.028,0.917
		C73.959,71.186,73.959,73.656,73.959,73.656z M73.006,70.269h-0.615v2.072c0,0.119-0.021,0.231-0.056,0.315
		c-0.112,0.28-0.4,0.567-0.813,0.567c-0.553,0-0.756-0.441-0.756-1.085v-1.869h-0.615v1.981c0,1.183,0.636,1.483,1.168,1.483
		c0.602,0,0.967-0.356,1.121-0.629h0.014l0.034,0.552h0.546c-0.021-0.266-0.028-0.574-0.028-0.924V70.269z M64.943,73.656h0.615
		v-2.044c0-0.098,0.014-0.21,0.042-0.287c0.112-0.343,0.427-0.63,0.826-0.63c0.582,0,0.785,0.462,0.785,1.008v1.953h0.615v-2.023
		c0-1.162-0.727-1.441-1.197-1.441c-0.56,0-0.952,0.314-1.12,0.629h-0.014l-0.035-0.552h-0.545c0.021,0.28,0.028,0.56,0.028,0.917
		C64.943,71.186,64.943,73.656,64.943,73.656z M61.862,71.628c0.049-0.428,0.315-1.003,0.945-1.003c0.687,0,0.855,0.617,0.848,1.003
		H61.862z M64.228,72.077c0.014-0.07,0.021-0.169,0.021-0.295c0-0.624-0.287-1.597-1.393-1.597c-0.987,0-1.595,0.805-1.595,1.836
		c0,1.013,0.629,1.705,1.665,1.705c0.54,0,0.918-0.119,1.134-0.217l-0.112-0.433c-0.223,0.091-0.496,0.168-0.938,0.168
		c-0.616,0-1.141-0.343-1.155-1.174L64.228,72.077z M59.44,69.646v0.623h-0.525v0.468h0.525v1.852c0,0.396,0.07,0.697,0.238,0.885
		c0.146,0.161,0.377,0.259,0.664,0.259c0.238,0,0.427-0.042,0.546-0.084l-0.028-0.468c-0.091,0.028-0.189,0.042-0.357,0.042
		c-0.343,0-0.462-0.238-0.462-0.658v-1.828h0.882v-0.468h-0.882v-0.812L59.44,69.646z M58.032,69.645
		c0.245,0,0.399-0.182,0.399-0.399c0-0.216-0.154-0.391-0.392-0.391c-0.237,0-0.398,0.175-0.398,0.391
		c0,0.217,0.154,0.399,0.384,0.399H58.032z M58.347,70.269h-0.615v3.387h0.615V70.269z M54.651,71.628
		c0.049-0.428,0.315-1.003,0.946-1.003c0.686,0,0.854,0.617,0.847,1.003H54.651z M57.017,72.077c0.014-0.07,0.021-0.169,0.021-0.295
		c0-0.624-0.286-1.597-1.392-1.597c-0.988,0-1.596,0.805-1.596,1.836c0,1.013,0.629,1.705,1.666,1.705
		c0.539,0,0.917-0.119,1.133-0.217l-0.111-0.433c-0.224,0.091-0.497,0.168-0.938,0.168c-0.617,0-1.142-0.343-1.156-1.174
		L57.017,72.077z M50.48,73.656h0.615v-2.044c0-0.119,0.007-0.21,0.042-0.294c0.119-0.336,0.427-0.616,0.827-0.616
		c0.581,0,0.784,0.455,0.784,1.008v1.946h0.615V71.64c0-1.169-0.727-1.448-1.182-1.448c-0.231,0-0.449,0.063-0.631,0.175
		c-0.189,0.097-0.343,0.258-0.441,0.433h-0.014v-2.113H50.48V73.656z M47.757,68.687h-0.615v4.969h0.615v-1.274l0.315-0.357
		l1.162,1.631h0.749l-1.491-1.994l1.309-1.393h-0.735l-1.001,1.169c-0.098,0.112-0.21,0.266-0.294,0.384h-0.014V68.687z
		 M43.327,73.656h0.615v-2.044c0-0.098,0.014-0.21,0.042-0.287c0.113-0.343,0.428-0.63,0.827-0.63c0.581,0,0.784,0.462,0.784,1.008
		v1.953h0.615v-2.023c0-1.162-0.727-1.441-1.196-1.441c-0.56,0-0.952,0.314-1.12,0.629H43.88l-0.035-0.552h-0.546
		c0.021,0.28,0.028,0.56,0.028,0.917C43.327,71.186,43.327,73.656,43.327,73.656z M41.808,72.515c0,0.063-0.007,0.133-0.028,0.197
		c-0.098,0.287-0.385,0.567-0.833,0.567c-0.308,0-0.574-0.182-0.574-0.589c0-0.658,0.763-0.777,1.435-0.763V72.515z M42.41,71.578
		c0-0.68-0.252-1.386-1.295-1.386c-0.427,0-0.84,0.119-1.12,0.293l0.14,0.413c0.238-0.161,0.567-0.252,0.889-0.252
		c0.693-0.007,0.77,0.505,0.77,0.785v0.07c-1.309-0.007-2.037,0.44-2.037,1.26c0,0.49,0.35,0.972,1.036,0.972
		c0.483,0,0.854-0.238,1.036-0.503h0.021l0.056,0.426h0.553c-0.035-0.231-0.049-0.518-0.049-0.812
		C42.41,72.844,42.41,71.578,42.41,71.578z M37.845,73.656h0.616V71.85c0-0.105,0.007-0.203,0.021-0.294
		c0.084-0.455,0.392-0.784,0.826-0.784c0.084,0,0.147,0.007,0.217,0.014v-0.573c-0.056-0.014-0.105-0.021-0.168-0.021
		c-0.413,0-0.791,0.286-0.945,0.741h-0.021l-0.028-0.664h-0.539c0.021,0.315,0.028,0.658,0.028,1.057L37.845,73.656z M35.13,68.687
		h-0.615v4.969h0.615v-1.274l0.315-0.357l1.162,1.631h0.749l-1.491-1.994l1.309-1.393h-0.735l-1.001,1.169
		c-0.098,0.112-0.21,0.266-0.294,0.384H35.13C35.13,71.822,35.13,68.687,35.13,68.687z M31.582,73.495
		c0.237,0.14,0.58,0.238,0.951,0.238c0.791,0,1.26-0.419,1.26-1.021c0-0.511-0.308-0.806-0.889-1.023
		c-0.441-0.168-0.637-0.294-0.637-0.581c0-0.252,0.196-0.462,0.56-0.462c0.316,0,0.56,0.119,0.693,0.196l0.147-0.441
		c-0.182-0.118-0.482-0.209-0.826-0.209c-0.721,0-1.168,0.447-1.168,0.993c0,0.406,0.286,0.735,0.902,0.959
		c0.448,0.169,0.624,0.33,0.624,0.624c0,0.287-0.211,0.504-0.652,0.504c-0.308,0-0.63-0.126-0.819-0.238L31.582,73.495z
		 M27.998,73.656h0.615v-2.044c0-0.098,0.014-0.21,0.042-0.287c0.112-0.343,0.427-0.63,0.826-0.63c0.582,0,0.785,0.462,0.785,1.008
		v1.953h0.615v-2.023c0-1.162-0.727-1.441-1.197-1.441c-0.56,0-0.952,0.314-1.12,0.629H28.55l-0.035-0.552H27.97
		c0.021,0.28,0.028,0.56,0.028,0.917C27.998,71.186,27.998,73.656,27.998,73.656z M25.617,73.272c-0.595,0-1.015-0.56-1.015-1.303
		c0-0.644,0.315-1.316,1.036-1.316c0.729,0,1.016,0.721,1.016,1.295c0,0.771-0.442,1.324-1.03,1.324
		C25.624,73.272,25.617,73.272,25.617,73.272z M25.61,73.733c0.806,0,1.68-0.545,1.68-1.806c0-1.029-0.657-1.735-1.631-1.735
		c-0.931,0-1.679,0.664-1.679,1.798c0,1.072,0.713,1.743,1.623,1.743H25.61z M22.957,69.645c0.245,0,0.399-0.182,0.399-0.399
		c0-0.216-0.154-0.391-0.392-0.391c-0.237,0-0.398,0.175-0.398,0.391c0,0.217,0.154,0.399,0.384,0.399H22.957z M23.272,70.269
		h-0.615v3.387h0.615V70.269z M20.55,69.646v0.623h-0.525v0.468h0.525v1.852c0,0.396,0.07,0.697,0.237,0.885
		c0.147,0.161,0.378,0.259,0.665,0.259c0.238,0,0.427-0.042,0.546-0.084l-0.028-0.468c-0.091,0.028-0.189,0.042-0.357,0.042
		c-0.343,0-0.462-0.238-0.462-0.658v-1.828h0.882v-0.468h-0.882v-0.812L20.55,69.646z M17.812,68.687h-0.615v4.969h0.615v-1.274
		l0.315-0.357l1.162,1.631h0.749l-1.491-1.994l1.309-1.393h-0.735l-1.001,1.169c-0.098,0.112-0.21,0.266-0.294,0.384h-0.014
		C17.812,71.822,17.812,68.687,17.812,68.687z M14.116,71.628c0.049-0.428,0.315-1.003,0.945-1.003c0.687,0,0.855,0.617,0.848,1.003
		H14.116z M16.482,72.077c0.014-0.07,0.021-0.169,0.021-0.295c0-0.624-0.287-1.597-1.393-1.597c-0.987,0-1.595,0.805-1.595,1.836
		c0,1.013,0.629,1.705,1.665,1.705c0.54,0,0.918-0.119,1.134-0.217l-0.112-0.433c-0.223,0.091-0.496,0.168-0.937,0.168
		c-0.617,0-1.142-0.343-1.156-1.174L16.482,72.077z M12.541,73.656v-2.919h0.812v-0.468h-0.819v-0.182
		c0-0.519,0.14-0.981,0.658-0.981c0.182,0,0.301,0.035,0.399,0.077l0.077-0.475c-0.119-0.049-0.301-0.098-0.525-0.098
		c-0.28,0-0.588,0.091-0.819,0.314c-0.287,0.273-0.398,0.707-0.398,1.184v0.161h-0.469v0.468h0.469v2.919
		C11.926,73.656,12.541,73.656,12.541,73.656z M8.055,73.656H8.67v-2.044c0-0.098,0.014-0.21,0.042-0.287
		c0.112-0.343,0.427-0.63,0.826-0.63c0.582,0,0.785,0.462,0.785,1.008v1.953h0.615v-2.023c0-1.162-0.727-1.441-1.197-1.441
		c-0.56,0-0.952,0.314-1.12,0.629H8.607l-0.035-0.552H8.027c0.021,0.28,0.028,0.56,0.028,0.917
		C8.055,71.186,8.055,73.656,8.055,73.656z M6.466,73.656h0.615v-4.717H6.466V73.656z"></path>
	<path fill="#2C2F69" d="M126.024,65.156h0.615V63.35c0-0.105,0.007-0.203,0.021-0.294c0.084-0.455,0.392-0.784,0.826-0.784
		c0.084,0,0.147,0.007,0.217,0.014v-0.573c-0.056-0.014-0.105-0.021-0.168-0.021c-0.413,0-0.791,0.287-0.945,0.741h-0.021
		l-0.028-0.664h-0.538c0.021,0.315,0.028,0.658,0.028,1.057L126.024,65.156z M124.931,61.769h-0.615v2.072
		c0,0.119-0.021,0.231-0.056,0.315c-0.112,0.28-0.399,0.567-0.813,0.567c-0.553,0-0.756-0.441-0.756-1.085v-1.869h-0.615v1.981
		c0,1.183,0.636,1.483,1.168,1.483c0.603,0,0.967-0.356,1.121-0.629h0.014l0.035,0.552h0.545c-0.021-0.266-0.028-0.574-0.028-0.923
		C124.931,64.233,124.931,61.769,124.931,61.769z M124.175,61.257c0.21,0,0.343-0.161,0.343-0.349c0-0.196-0.147-0.35-0.336-0.35
		c-0.202,0-0.349,0.161-0.349,0.35c0,0.188,0.14,0.349,0.335,0.349H124.175z M122.901,61.257c0.203,0,0.336-0.161,0.336-0.349
		c0-0.196-0.147-0.35-0.336-0.35c-0.195,0-0.349,0.161-0.349,0.35c0,0.188,0.14,0.349,0.342,0.349H122.901z M120.654,65.156v-2.919
		h0.812v-0.468h-0.819v-0.182c0-0.518,0.14-0.981,0.658-0.981c0.182,0,0.301,0.035,0.399,0.077l0.077-0.475
		c-0.119-0.049-0.301-0.098-0.525-0.098c-0.28,0-0.588,0.091-0.819,0.315c-0.286,0.272-0.398,0.707-0.398,1.183v0.161h-0.469v0.468
		h0.469v2.919H120.654z M115.208,63.128c0.049-0.428,0.315-1.003,0.946-1.003c0.686,0,0.854,0.617,0.847,1.003H115.208z
		 M117.574,63.577c0.014-0.07,0.021-0.168,0.021-0.295c0-0.624-0.286-1.597-1.392-1.597c-0.988,0-1.596,0.805-1.596,1.836
		c0,1.014,0.629,1.705,1.666,1.705c0.539,0,0.917-0.119,1.133-0.216l-0.111-0.434c-0.224,0.091-0.497,0.168-0.938,0.168
		c-0.617,0-1.142-0.342-1.156-1.174L117.574,63.577z M112.646,61.146v0.623h-0.525v0.468h0.525v1.853
		c0,0.395,0.07,0.696,0.238,0.885c0.146,0.16,0.377,0.258,0.664,0.258c0.238,0,0.427-0.042,0.546-0.084l-0.028-0.468
		c-0.091,0.028-0.189,0.042-0.357,0.042c-0.343,0-0.462-0.238-0.462-0.658v-1.828h0.882v-0.468h-0.882v-0.812L112.646,61.146z
		 M109.055,65.156h2.75v-0.489h-1.98v-0.014c0.154-0.168,0.294-0.343,0.434-0.525l1.518-1.975v-0.384h-2.582v0.489h1.84v0.014
		c-0.16,0.182-0.293,0.343-0.447,0.532l-1.533,1.996C109.055,64.8,109.055,65.156,109.055,65.156z M107.02,65.156h0.615V63.35
		c0-0.105,0.007-0.203,0.021-0.294c0.084-0.455,0.392-0.784,0.826-0.784c0.084,0,0.147,0.007,0.217,0.014v-0.573
		c-0.056-0.014-0.105-0.021-0.168-0.021c-0.413,0-0.791,0.287-0.945,0.741h-0.021l-0.028-0.664h-0.538
		c0.021,0.315,0.028,0.658,0.028,1.057L107.02,65.156z M104.961,60.109c0.21,0,0.343-0.161,0.343-0.349
		c0-0.203-0.14-0.357-0.336-0.357s-0.342,0.161-0.342,0.357c0,0.188,0.132,0.349,0.328,0.349H104.961z M103.68,60.109
		c0.203,0,0.336-0.161,0.336-0.349c0-0.203-0.14-0.357-0.336-0.357s-0.342,0.161-0.342,0.357c0,0.188,0.139,0.349,0.335,0.349
		H103.68z M103.575,63.197l0.462-1.365c0.091-0.287,0.168-0.582,0.238-0.855h0.014c0.07,0.273,0.14,0.553,0.245,0.862l0.469,1.358
		H103.575z M105.122,63.672l0.511,1.484h0.651l-1.609-4.717h-0.743l-1.602,4.717h0.63l0.489-1.484H105.122z M99.404,63.735
		c0,0.098-0.007,0.182-0.028,0.266c-0.112,0.456-0.491,0.736-0.904,0.736c-0.658,0-1.001-0.567-1.001-1.26
		c0-0.743,0.378-1.303,1.015-1.303c0.463,0,0.799,0.322,0.89,0.708c0.021,0.084,0.028,0.182,0.028,0.266V63.735z M99.404,60.187
		v2.015H99.39c-0.147-0.265-0.498-0.51-1.023-0.51c-0.819,0-1.525,0.685-1.518,1.82c0,1.029,0.636,1.721,1.455,1.721
		c0.553,0,0.96-0.286,1.149-0.664h0.014l0.028,0.587h0.552c-0.021-0.231-0.028-0.574-0.028-0.875v-4.094
		C100.019,60.187,99.404,60.187,99.404,60.187z M93.139,65.156h0.615v-2.044c0-0.098,0.014-0.21,0.042-0.287
		c0.112-0.343,0.427-0.63,0.826-0.63c0.582,0,0.785,0.462,0.785,1.008v1.953h0.615v-2.023c0-1.161-0.727-1.441-1.197-1.441
		c-0.56,0-0.952,0.315-1.12,0.629h-0.014l-0.035-0.552h-0.545c0.021,0.28,0.028,0.56,0.028,0.917
		C93.139,62.686,93.139,65.156,93.139,65.156z M92.046,61.769h-0.615v2.072c0,0.119-0.021,0.231-0.056,0.315
		c-0.112,0.28-0.399,0.567-0.813,0.567c-0.553,0-0.756-0.441-0.756-1.085v-1.869h-0.615v1.981c0,1.183,0.636,1.483,1.168,1.483
		c0.603,0,0.967-0.356,1.121-0.629h0.014l0.035,0.552h0.545c-0.021-0.266-0.028-0.574-0.028-0.923
		C92.046,64.233,92.046,61.769,92.046,61.769z M83.703,65.156h0.615v-2.044c0-0.098,0.014-0.21,0.042-0.287
		c0.112-0.343,0.427-0.63,0.826-0.63c0.582,0,0.785,0.462,0.785,1.008v1.953h0.615v-2.023c0-1.161-0.727-1.441-1.196-1.441
		c-0.561,0-0.953,0.315-1.121,0.629h-0.014l-0.035-0.552h-0.545c0.021,0.28,0.028,0.56,0.028,0.917
		C83.703,62.686,83.703,65.156,83.703,65.156z M80.482,63.128c0.049-0.428,0.315-1.003,0.946-1.003c0.686,0,0.854,0.617,0.847,1.003
		H80.482z M82.848,63.577c0.014-0.07,0.021-0.168,0.021-0.295c0-0.624-0.286-1.597-1.392-1.597c-0.988,0-1.596,0.805-1.596,1.836
		c0,1.014,0.629,1.705,1.666,1.705c0.539,0,0.917-0.119,1.133-0.216l-0.111-0.434c-0.224,0.091-0.497,0.168-0.938,0.168
		c-0.617,0-1.142-0.342-1.156-1.174L82.848,63.577z M76.171,65.156h0.615v-2.044c0-0.098,0.014-0.21,0.042-0.287
		c0.112-0.343,0.427-0.63,0.827-0.63c0.581,0,0.784,0.462,0.784,1.008v1.953h0.615v-2.023c0-1.161-0.727-1.441-1.196-1.441
		c-0.561,0-0.953,0.315-1.121,0.629h-0.014l-0.035-0.552h-0.545c0.021,0.28,0.028,0.56,0.028,0.917
		C76.171,62.686,76.171,65.156,76.171,65.156z M72.216,65.156h0.615v-2.044c0-0.098,0.014-0.21,0.042-0.287
		c0.112-0.343,0.427-0.63,0.827-0.63c0.581,0,0.784,0.462,0.784,1.008v1.953h0.615v-2.023c0-1.161-0.727-1.441-1.196-1.441
		c-0.561,0-0.953,0.315-1.121,0.629h-0.014l-0.035-0.552h-0.545c0.021,0.28,0.028,0.56,0.028,0.917
		C72.216,62.686,72.216,65.156,72.216,65.156z M70.809,61.145c0.244,0,0.398-0.182,0.398-0.398c0-0.217-0.154-0.392-0.391-0.392
		c-0.238,0-0.399,0.175-0.399,0.392c0,0.216,0.154,0.398,0.385,0.398H70.809z M71.123,61.769h-0.615v3.387h0.615V61.769z
		 M68.261,61.146v0.623h-0.525v0.468h0.525v1.853c0,0.395,0.07,0.696,0.238,0.885c0.147,0.16,0.377,0.258,0.664,0.258
		c0.238,0,0.427-0.042,0.546-0.084l-0.028-0.468c-0.091,0.028-0.189,0.042-0.357,0.042c-0.343,0-0.462-0.238-0.462-0.658v-1.828
		h0.882v-0.468h-0.882v-0.812L68.261,61.146z M64.67,65.156h2.75v-0.489h-1.98v-0.014c0.154-0.168,0.294-0.343,0.434-0.525
		l1.518-1.975v-0.384H64.81v0.489h1.841v0.014c-0.161,0.182-0.294,0.343-0.448,0.532L64.67,64.8
		C64.67,64.8,64.67,65.156,64.67,65.156z M62.635,65.156h0.615V63.35c0-0.105,0.007-0.203,0.021-0.294
		c0.084-0.455,0.392-0.784,0.826-0.784c0.084,0,0.147,0.007,0.217,0.014v-0.573c-0.056-0.014-0.105-0.021-0.168-0.021
		c-0.413,0-0.791,0.287-0.945,0.741H63.18l-0.028-0.664h-0.538c0.021,0.315,0.028,0.658,0.028,1.057L62.635,65.156z M60.576,60.109
		c0.21,0,0.343-0.161,0.343-0.349c0-0.203-0.14-0.357-0.336-0.357c-0.195,0-0.342,0.161-0.342,0.357
		c0,0.188,0.133,0.349,0.328,0.349H60.576z M59.295,60.109c0.203,0,0.336-0.161,0.336-0.349c0-0.203-0.14-0.357-0.336-0.357
		c-0.195,0-0.342,0.161-0.342,0.357c0,0.188,0.14,0.349,0.335,0.349H59.295z M59.19,63.197l0.462-1.365
		c0.091-0.287,0.168-0.582,0.238-0.855h0.014c0.07,0.273,0.14,0.553,0.246,0.862l0.468,1.358H59.19z M60.737,63.672l0.511,1.484
		h0.651l-1.609-4.717h-0.743l-1.602,4.717h0.63l0.49-1.484H60.737z M54.368,65.156h0.615V63.35c0-0.105,0.007-0.203,0.021-0.294
		c0.084-0.455,0.392-0.784,0.826-0.784c0.084,0,0.147,0.007,0.217,0.014v-0.573c-0.056-0.014-0.105-0.021-0.168-0.021
		c-0.413,0-0.791,0.287-0.945,0.741h-0.021l-0.028-0.664h-0.538c0.021,0.315,0.028,0.658,0.028,1.057L54.368,65.156z M51.147,63.128
		c0.049-0.428,0.315-1.003,0.945-1.003c0.687,0,0.855,0.617,0.848,1.003H51.147z M53.513,63.577c0.014-0.07,0.021-0.168,0.021-0.295
		c0-0.624-0.287-1.597-1.393-1.597c-0.987,0-1.595,0.805-1.595,1.836c0,1.014,0.629,1.705,1.666,1.705
		c0.539,0,0.917-0.119,1.133-0.216l-0.112-0.434c-0.223,0.091-0.496,0.168-0.937,0.168c-0.617,0-1.142-0.342-1.156-1.174
		L53.513,63.577z M49.09,63.708c0,0.112-0.014,0.231-0.049,0.329c-0.126,0.399-0.469,0.637-0.854,0.637
		c-0.659,0-1.002-0.56-1.002-1.218c0-0.792,0.42-1.289,1.009-1.289c0.455,0,0.749,0.294,0.861,0.659
		c0.028,0.084,0.035,0.175,0.035,0.273V63.708z M49.705,62.692c0-0.412,0.007-0.685,0.028-0.923h-0.545l-0.021,0.503h-0.014
		c-0.154-0.279-0.469-0.58-1.058-0.58c-0.784,0-1.532,0.643-1.532,1.792c0,0.945,0.601,1.658,1.441,1.658
		c0.526,0,0.897-0.251,1.079-0.566h0.014v0.371c0,0.861-0.462,1.19-1.093,1.19c-0.42,0-0.77-0.126-0.994-0.273l-0.153,0.476
		c0.272,0.181,0.72,0.279,1.126,0.279c0.428,0,0.904-0.105,1.24-0.405c0.321-0.301,0.482-0.77,0.482-1.554V62.692z M45.401,61.145
		c0.244,0,0.398-0.182,0.398-0.398c0-0.217-0.154-0.392-0.391-0.392c-0.238,0-0.399,0.175-0.399,0.392
		c0,0.216,0.154,0.398,0.385,0.398H45.401z M45.715,61.769H45.1v3.387h0.615V61.769z M42.853,61.146v0.623h-0.525v0.468h0.525v1.853
		c0,0.395,0.07,0.696,0.238,0.885c0.146,0.16,0.377,0.258,0.664,0.258c0.238,0,0.427-0.042,0.546-0.084l-0.028-0.468
		c-0.091,0.028-0.189,0.042-0.357,0.042c-0.343,0-0.462-0.238-0.462-0.658v-1.828h0.882v-0.468h-0.882v-0.812L42.853,61.146z
		 M41.054,64.015c0,0.064-0.007,0.134-0.028,0.197c-0.098,0.287-0.385,0.567-0.833,0.567c-0.309,0-0.575-0.182-0.575-0.588
		c0-0.659,0.764-0.778,1.436-0.764V64.015z M41.655,63.078c0-0.679-0.251-1.386-1.294-1.386c-0.428,0-0.841,0.119-1.12,0.294
		l0.14,0.413c0.237-0.162,0.566-0.253,0.889-0.253c0.693-0.007,0.77,0.505,0.77,0.785v0.07c-1.31-0.007-2.037,0.44-2.037,1.26
		c0,0.49,0.35,0.972,1.035,0.972c0.484,0,0.855-0.237,1.037-0.503h0.021l0.056,0.426h0.552c-0.035-0.231-0.049-0.518-0.049-0.812
		V63.078z M41.082,61.257c0.209,0,0.342-0.161,0.342-0.349c0-0.196-0.147-0.35-0.335-0.35c-0.203,0-0.35,0.161-0.35,0.35
		c0,0.188,0.14,0.349,0.336,0.349H41.082z M39.808,61.257c0.202,0,0.335-0.161,0.335-0.349c0-0.196-0.147-0.35-0.335-0.35
		c-0.196,0-0.35,0.161-0.35,0.35c0,0.188,0.14,0.349,0.343,0.349H39.808z M37.022,61.146v0.623h-0.525v0.468h0.525v1.853
		c0,0.395,0.07,0.696,0.238,0.885c0.147,0.16,0.377,0.258,0.664,0.258c0.238,0,0.427-0.042,0.546-0.084l-0.028-0.468
		c-0.091,0.028-0.189,0.042-0.357,0.042c-0.343,0-0.462-0.238-0.462-0.658v-1.828h0.882v-0.468h-0.882v-0.812L37.022,61.146z
		 M33.081,61.146v0.623h-0.525v0.468h0.525v1.853c0,0.395,0.07,0.696,0.238,0.885c0.147,0.16,0.377,0.258,0.664,0.258
		c0.238,0,0.427-0.042,0.546-0.084l-0.028-0.468c-0.091,0.028-0.189,0.042-0.357,0.042c-0.343,0-0.462-0.238-0.462-0.658v-1.828
		h0.882v-0.468h-0.882v-0.812L33.081,61.146z M29.014,65.156h0.615v-2.044c0-0.098,0.014-0.21,0.042-0.287
		c0.112-0.343,0.427-0.63,0.826-0.63c0.582,0,0.785,0.462,0.785,1.008v1.953h0.615v-2.023c0-1.161-0.727-1.441-1.197-1.441
		c-0.56,0-0.952,0.315-1.12,0.629h-0.014l-0.035-0.552h-0.545c0.021,0.28,0.028,0.56,0.028,0.917
		C29.014,62.686,29.014,65.156,29.014,65.156z M27.355,64.015c0,0.064-0.007,0.134-0.028,0.197
		c-0.098,0.287-0.386,0.567-0.834,0.567c-0.308,0-0.574-0.182-0.574-0.588c0-0.659,0.763-0.778,1.436-0.764
		C27.355,63.427,27.355,64.015,27.355,64.015z M27.956,63.078c0-0.679-0.252-1.386-1.295-1.386c-0.427,0-0.84,0.119-1.12,0.294
		l0.14,0.413c0.238-0.162,0.567-0.253,0.889-0.253c0.694-0.007,0.771,0.505,0.771,0.785v0.07c-1.31-0.007-2.037,0.44-2.037,1.26
		c0,0.49,0.349,0.972,1.035,0.972c0.483,0,0.855-0.237,1.037-0.503h0.021l0.055,0.426h0.553c-0.035-0.231-0.049-0.518-0.049-0.812
		C27.956,64.344,27.956,63.078,27.956,63.078z M23.862,65.156h0.615v-4.969h-0.615V65.156z M22.769,61.769h-0.615v2.072
		c0,0.119-0.021,0.231-0.056,0.315c-0.112,0.28-0.4,0.567-0.813,0.567c-0.553,0-0.756-0.441-0.756-1.085v-1.869h-0.615v1.981
		c0,1.183,0.636,1.483,1.168,1.483c0.602,0,0.967-0.356,1.121-0.629h0.014l0.035,0.552h0.545c-0.021-0.266-0.028-0.574-0.028-0.923
		V61.769z M16.497,63.19c0-0.098,0.014-0.182,0.035-0.259c0.119-0.463,0.511-0.757,0.931-0.757c0.659,0,1.009,0.581,1.009,1.268
		c0,0.777-0.378,1.302-1.03,1.302c-0.441,0-0.805-0.294-0.924-0.721c-0.014-0.07-0.021-0.147-0.021-0.224V63.19z M15.882,64.282
		c0,0.3-0.007,0.643-0.028,0.874h0.531l0.035-0.559h0.014c0.259,0.448,0.644,0.636,1.134,0.636c0.757,0,1.526-0.601,1.526-1.819
		c0-1.023-0.587-1.722-1.428-1.722c-0.546,0-0.938,0.238-1.155,0.615h-0.014v-2.12h-0.615V64.282z M9.974,65.156h0.601v-2.044
		c0-0.105,0.014-0.21,0.049-0.301c0.098-0.308,0.385-0.616,0.763-0.616c0.47,0,0.708,0.385,0.708,0.931v2.03h0.601v-2.1
		c0-0.105,0.021-0.217,0.049-0.308c0.112-0.294,0.378-0.553,0.735-0.553c0.491,0,0.736,0.385,0.736,1.043v1.918h0.601v-1.995
		c0-1.175-0.664-1.469-1.119-1.469c-0.323,0-0.54,0.084-0.743,0.238c-0.14,0.105-0.28,0.244-0.385,0.44h-0.014
		c-0.147-0.398-0.496-0.678-0.951-0.678c-0.568,0-0.883,0.301-1.072,0.622h-0.021l-0.028-0.545H9.946
		c0.014,0.28,0.028,0.56,0.028,0.917C9.974,62.686,9.974,65.156,9.974,65.156z M8.315,64.015c0,0.064-0.007,0.134-0.028,0.197
		c-0.098,0.287-0.385,0.567-0.834,0.567c-0.308,0-0.574-0.182-0.574-0.588c0-0.659,0.763-0.778,1.436-0.764V64.015z M8.916,63.078
		c0-0.679-0.252-1.386-1.295-1.386c-0.427,0-0.84,0.119-1.119,0.294l0.139,0.413c0.238-0.162,0.567-0.253,0.889-0.253
		c0.694-0.007,0.771,0.505,0.771,0.785v0.07c-1.31-0.007-2.037,0.44-2.037,1.26c0,0.49,0.349,0.972,1.035,0.972
		c0.484,0,0.855-0.237,1.037-0.503h0.021l0.056,0.426h0.552c-0.035-0.231-0.049-0.518-0.049-0.812V63.078z"></path>
	<path fill="#2C2F69" d="M126.136,52.646v0.623h-0.525v0.468h0.525v1.852c0,0.396,0.07,0.697,0.238,0.885
		c0.146,0.161,0.377,0.259,0.664,0.259c0.238,0,0.427-0.042,0.546-0.084l-0.028-0.468c-0.091,0.028-0.189,0.042-0.357,0.042
		c-0.343,0-0.462-0.238-0.462-0.658v-1.828h0.882v-0.468h-0.882v-0.812L126.136,52.646z M124.546,56.656v-2.919h0.812v-0.468h-0.819
		v-0.182c0-0.519,0.14-0.981,0.658-0.981c0.182,0,0.301,0.035,0.399,0.077l0.077-0.475c-0.119-0.049-0.301-0.098-0.525-0.098
		c-0.28,0-0.588,0.091-0.818,0.314c-0.287,0.273-0.399,0.707-0.399,1.184v0.161h-0.469v0.468h0.469v2.919
		C123.931,56.656,124.546,56.656,124.546,56.656z M122.286,55.515c0,0.063-0.007,0.133-0.028,0.196
		c-0.098,0.288-0.385,0.568-0.833,0.568c-0.309,0-0.575-0.182-0.575-0.589c0-0.658,0.764-0.777,1.436-0.763V55.515z M122.887,54.578
		c0-0.68-0.251-1.386-1.294-1.386c-0.427,0-0.841,0.119-1.12,0.293l0.14,0.413c0.237-0.161,0.567-0.252,0.889-0.252
		c0.693-0.007,0.77,0.504,0.77,0.785v0.07c-1.31-0.007-2.037,0.44-2.037,1.259c0,0.491,0.35,0.973,1.036,0.973
		c0.483,0,0.854-0.238,1.036-0.503h0.021l0.056,0.426h0.552c-0.035-0.231-0.049-0.518-0.049-0.812V54.578z M116.616,56.656h0.615
		v-2.044c0-0.119,0.007-0.21,0.042-0.294c0.119-0.336,0.428-0.616,0.827-0.616c0.581,0,0.784,0.455,0.784,1.008v1.946h0.615V54.64
		c0-1.169-0.727-1.448-1.182-1.448c-0.231,0-0.448,0.063-0.63,0.174c-0.189,0.098-0.344,0.259-0.442,0.434h-0.014v-2.113h-0.615
		V56.656z M115.789,56.076c-0.175,0.077-0.406,0.161-0.756,0.161c-0.672,0-1.176-0.483-1.176-1.268c0-0.707,0.42-1.288,1.197-1.288
		c0.336,0,0.567,0.084,0.714,0.161l0.14-0.469c-0.168-0.09-0.49-0.181-0.854-0.181c-1.106,0-1.819,0.762-1.819,1.805
		c0,1.044,0.664,1.736,1.686,1.736c0.455,0,0.812-0.119,0.973-0.196L115.789,56.076z M110.477,56.495
		c0.238,0.14,0.581,0.238,0.952,0.238c0.791,0,1.259-0.419,1.259-1.021c0-0.512-0.307-0.806-0.888-1.023
		c-0.441-0.168-0.638-0.294-0.638-0.581c0-0.252,0.197-0.462,0.561-0.462c0.315,0,0.56,0.119,0.693,0.196l0.147-0.441
		c-0.182-0.118-0.483-0.209-0.826-0.209c-0.721,0-1.169,0.447-1.169,0.993c0,0.406,0.287,0.735,0.903,0.959
		c0.448,0.168,0.623,0.33,0.623,0.624c0,0.287-0.21,0.504-0.651,0.504c-0.309,0-0.63-0.126-0.819-0.238L110.477,56.495z
		 M106.823,56.656h0.615v-2.044c0-0.098,0.014-0.21,0.042-0.287c0.113-0.343,0.428-0.63,0.827-0.63c0.581,0,0.784,0.462,0.784,1.008
		v1.953h0.615v-2.023c0-1.162-0.727-1.441-1.196-1.441c-0.56,0-0.952,0.314-1.12,0.629h-0.014l-0.035-0.552h-0.546
		c0.021,0.28,0.028,0.56,0.028,0.917C106.823,54.186,106.823,56.656,106.823,56.656z M105.486,52.645
		c0.245,0,0.399-0.182,0.399-0.399c0-0.216-0.154-0.391-0.392-0.391s-0.399,0.175-0.399,0.391c0,0.217,0.154,0.399,0.385,0.399
		H105.486z M105.801,53.269h-0.615v3.387h0.615V53.269z M102.035,54.627c0.049-0.427,0.315-1.002,0.945-1.002
		c0.686,0,0.854,0.617,0.847,1.002H102.035z M104.401,55.077c0.014-0.07,0.021-0.169,0.021-0.295c0-0.624-0.287-1.597-1.393-1.597
		c-0.987,0-1.596,0.804-1.596,1.836c0,1.013,0.63,1.705,1.666,1.705c0.539,0,0.917-0.119,1.134-0.217l-0.112-0.433
		c-0.224,0.091-0.497,0.168-0.938,0.168c-0.616,0-1.141-0.343-1.155-1.174L104.401,55.077z M95.84,56.656h0.602v-2.044
		c0-0.105,0.014-0.21,0.049-0.301c0.098-0.308,0.385-0.616,0.763-0.616c0.469,0,0.707,0.385,0.707,0.931v2.03h0.602v-2.1
		c0-0.105,0.021-0.217,0.049-0.308c0.112-0.294,0.378-0.553,0.735-0.553c0.49,0,0.735,0.385,0.735,1.043v1.918h0.602v-1.995
		c0-1.176-0.665-1.469-1.12-1.469c-0.322,0-0.539,0.084-0.742,0.237c-0.14,0.105-0.28,0.245-0.385,0.441h-0.014
		c-0.147-0.399-0.497-0.678-0.952-0.678c-0.567,0-0.882,0.3-1.071,0.622h-0.021l-0.028-0.545h-0.539
		c0.014,0.28,0.028,0.56,0.028,0.917V56.656z M92.69,54.627c0.049-0.427,0.315-1.002,0.945-1.002c0.686,0,0.854,0.617,0.848,1.002
		H92.69z M95.056,55.077c0.014-0.07,0.021-0.169,0.021-0.295c0-0.624-0.287-1.597-1.393-1.597c-0.987,0-1.595,0.804-1.595,1.836
		c0,1.013,0.629,1.705,1.665,1.705c0.539,0,0.917-0.119,1.134-0.217l-0.112-0.433c-0.224,0.091-0.497,0.168-0.938,0.168
		c-0.616,0-1.141-0.343-1.155-1.174L95.056,55.077z M90.703,55.207c0,0.112-0.014,0.232-0.049,0.33
		c-0.127,0.399-0.47,0.637-0.855,0.637c-0.658,0-1.001-0.56-1.001-1.219c0-0.791,0.42-1.288,1.008-1.288
		c0.455,0,0.749,0.294,0.862,0.658c0.028,0.084,0.035,0.175,0.035,0.273V55.207z M91.318,54.192c0-0.412,0.007-0.685,0.028-0.923
		H90.8l-0.021,0.503h-0.014c-0.153-0.28-0.469-0.58-1.057-0.58c-0.784,0-1.532,0.643-1.532,1.791c0,0.946,0.601,1.659,1.441,1.659
		c0.525,0,0.896-0.252,1.079-0.566h0.014v0.37c0,0.861-0.463,1.191-1.093,1.191c-0.42,0-0.77-0.126-0.994-0.273l-0.154,0.475
		c0.273,0.182,0.721,0.28,1.127,0.28c0.427,0,0.903-0.105,1.239-0.405c0.322-0.301,0.483-0.771,0.483-1.554
		C91.318,56.16,91.318,54.192,91.318,54.192z M85.418,56.495c0.237,0.14,0.58,0.238,0.951,0.238c0.791,0,1.26-0.419,1.26-1.021
		c0-0.512-0.308-0.806-0.889-1.023c-0.441-0.168-0.637-0.294-0.637-0.581c0-0.252,0.196-0.462,0.56-0.462
		c0.316,0,0.56,0.119,0.693,0.196l0.147-0.441c-0.182-0.118-0.482-0.209-0.826-0.209c-0.721,0-1.168,0.447-1.168,0.993
		c0,0.406,0.286,0.735,0.902,0.959c0.448,0.168,0.624,0.33,0.624,0.624c0,0.287-0.211,0.504-0.652,0.504
		c-0.308,0-0.63-0.126-0.818-0.238L85.418,56.495z M83.472,52.646v0.623h-0.525v0.468h0.525v1.852c0,0.396,0.07,0.697,0.237,0.885
		c0.147,0.161,0.378,0.259,0.665,0.259c0.238,0,0.427-0.042,0.546-0.084l-0.028-0.468c-0.091,0.028-0.189,0.042-0.357,0.042
		c-0.343,0-0.462-0.238-0.462-0.658v-1.828h0.882v-0.468h-0.882v-0.812L83.472,52.646z M81.994,52.645
		c0.245,0,0.399-0.182,0.399-0.399c0-0.216-0.154-0.391-0.392-0.391c-0.237,0-0.398,0.175-0.398,0.391
		c0,0.217,0.154,0.399,0.384,0.399H81.994z M82.309,53.269h-0.615v3.387h0.615V53.269z M78.543,54.627
		c0.049-0.427,0.315-1.002,0.945-1.002c0.687,0,0.855,0.617,0.848,1.002H78.543z M80.909,55.077c0.014-0.07,0.021-0.169,0.021-0.295
		c0-0.624-0.287-1.597-1.393-1.597c-0.987,0-1.595,0.804-1.595,1.836c0,1.013,0.629,1.705,1.665,1.705
		c0.54,0,0.917-0.119,1.134-0.217l-0.112-0.433c-0.223,0.091-0.496,0.168-0.938,0.168c-0.616,0-1.141-0.343-1.155-1.174
		L80.909,55.077z M74.812,54.689c0-0.098,0.014-0.182,0.035-0.259c0.119-0.462,0.511-0.756,0.932-0.756
		c0.658,0,1.008,0.581,1.008,1.267c0,0.778-0.378,1.303-1.029,1.303c-0.442,0-0.806-0.294-0.925-0.721
		c-0.014-0.07-0.021-0.148-0.021-0.225V54.689z M74.197,55.782c0,0.3-0.007,0.643-0.028,0.874H74.7l0.035-0.559h0.014
		c0.259,0.447,0.644,0.636,1.135,0.636c0.756,0,1.525-0.601,1.525-1.82c0-1.022-0.587-1.721-1.427-1.721
		c-0.547,0-0.939,0.237-1.156,0.615h-0.014v-2.12h-0.615C74.197,51.687,74.197,55.782,74.197,55.782z M71.908,56.656h0.615V54.85
		c0-0.105,0.007-0.203,0.021-0.294c0.084-0.455,0.392-0.784,0.826-0.784c0.084,0,0.147,0.007,0.217,0.014v-0.573
		c-0.056-0.014-0.105-0.021-0.168-0.021c-0.413,0-0.791,0.286-0.945,0.741h-0.021l-0.028-0.664h-0.538
		c0.021,0.315,0.028,0.658,0.028,1.057L71.908,56.656z M68.554,54.697l0.462-1.366c0.091-0.287,0.168-0.581,0.231-0.854h0.021
		c0.07,0.273,0.14,0.553,0.238,0.861l0.469,1.359H68.554z M70.101,55.172l0.504,1.484h0.651l-1.61-4.717h-0.735l-1.602,4.717h0.629
		l0.49-1.484H70.101z M63.01,54.627c0.049-0.427,0.315-1.002,0.945-1.002c0.687,0,0.855,0.617,0.848,1.002H63.01z M65.376,55.077
		c0.014-0.07,0.021-0.169,0.021-0.295c0-0.624-0.287-1.597-1.393-1.597c-0.987,0-1.595,0.804-1.595,1.836
		c0,1.013,0.629,1.705,1.665,1.705c0.54,0,0.917-0.119,1.134-0.217l-0.112-0.433c-0.223,0.091-0.496,0.168-0.938,0.168
		c-0.616,0-1.141-0.343-1.155-1.174L65.376,55.077z M58.769,56.656h0.615v-2.044c0-0.119,0.007-0.21,0.042-0.294
		c0.119-0.336,0.427-0.616,0.826-0.616c0.582,0,0.785,0.455,0.785,1.008v1.946h0.615V54.64c0-1.169-0.727-1.448-1.183-1.448
		c-0.231,0-0.448,0.063-0.63,0.174c-0.189,0.098-0.343,0.259-0.441,0.434h-0.014v-2.113h-0.615V56.656z M57.942,56.076
		c-0.175,0.077-0.406,0.161-0.756,0.161c-0.672,0-1.176-0.483-1.176-1.268c0-0.707,0.42-1.288,1.197-1.288
		c0.336,0,0.567,0.084,0.714,0.161l0.14-0.469c-0.168-0.09-0.49-0.181-0.854-0.181c-1.106,0-1.819,0.762-1.819,1.805
		c0,1.044,0.664,1.736,1.686,1.736c0.455,0,0.812-0.119,0.973-0.196L57.942,56.076z M52.63,56.495
		c0.238,0.14,0.58,0.238,0.951,0.238c0.792,0,1.26-0.419,1.26-1.021c0-0.512-0.308-0.806-0.888-1.023
		c-0.442-0.168-0.638-0.294-0.638-0.581c0-0.252,0.196-0.462,0.56-0.462c0.316,0,0.561,0.119,0.693,0.196l0.147-0.441
		c-0.182-0.118-0.482-0.209-0.826-0.209c-0.721,0-1.168,0.447-1.168,0.993c0,0.406,0.286,0.735,0.902,0.959
		c0.449,0.168,0.624,0.33,0.624,0.624c0,0.287-0.21,0.504-0.652,0.504c-0.308,0-0.63-0.126-0.818-0.238L52.63,56.495z
		 M50.684,52.646v0.623h-0.525v0.468h0.525v1.852c0,0.396,0.07,0.697,0.237,0.885c0.147,0.161,0.378,0.259,0.665,0.259
		c0.238,0,0.427-0.042,0.546-0.084l-0.028-0.468c-0.091,0.028-0.189,0.042-0.357,0.042c-0.343,0-0.462-0.238-0.462-0.658v-1.828
		h0.882v-0.468h-0.882v-0.812L50.684,52.646z M49.521,53.269h-0.615v2.072c0,0.119-0.021,0.231-0.056,0.315
		c-0.112,0.28-0.399,0.567-0.813,0.567c-0.553,0-0.756-0.441-0.756-1.085v-1.869h-0.615v1.981c0,1.182,0.636,1.483,1.168,1.483
		c0.603,0,0.967-0.356,1.121-0.629h0.014l0.035,0.552h0.545c-0.021-0.266-0.028-0.574-0.028-0.924
		C49.521,55.732,49.521,53.269,49.521,53.269z M43.536,54.627c0.049-0.427,0.315-1.002,0.945-1.002c0.687,0,0.855,0.617,0.848,1.002
		H43.536z M45.902,55.077c0.014-0.07,0.021-0.169,0.021-0.295c0-0.624-0.287-1.597-1.392-1.597c-0.988,0-1.596,0.804-1.596,1.836
		c0,1.013,0.629,1.705,1.666,1.705c0.539,0,0.917-0.119,1.133-0.217l-0.112-0.433c-0.223,0.091-0.496,0.168-0.937,0.168
		c-0.617,0-1.142-0.343-1.156-1.174L45.902,55.077z M39.106,52.449c0.161-0.035,0.399-0.063,0.714-0.063
		c1.289,0,1.919,0.693,1.912,1.82c0,1.275-0.707,2.01-2.01,2.003c-0.238,0-0.462,0-0.616-0.028V52.449z M38.491,56.642
		c0.315,0.042,0.671,0.056,1.112,0.056c0.918,0,1.646-0.238,2.094-0.678c0.433-0.434,0.678-1.065,0.678-1.835
		c0-0.763-0.245-1.316-0.671-1.701c-0.413-0.385-1.036-0.58-1.912-0.58c-0.483,0-0.924,0.042-1.301,0.098
		C38.491,52.002,38.491,56.642,38.491,56.642z"></path>
</g>
</svg>